<mxfile host="Electron" modified="2023-11-15T13:31:25.816Z" agent="Mozilla/5.0 (Macintosh; Intel Mac OS X 10_15_7) AppleWebKit/537.36 (KHTML, like Gecko) draw.io/22.0.3 Chrome/114.0.5735.289 Electron/25.8.4 Safari/537.36" etag="JxSPNPZnA3KOPCD84oc6" version="22.0.3" type="device">
  <diagram name="Page-1" id="0v4CuvBVWxd_3DYM-ltW">
    <mxGraphModel dx="866" dy="642" grid="1" gridSize="10" guides="1" tooltips="1" connect="1" arrows="1" fold="1" page="1" pageScale="1" pageWidth="850" pageHeight="1100" background="none" math="0" shadow="0">
      <root>
        <mxCell id="0" />
        <mxCell id="1" parent="0" />
        <mxCell id="Fg1O7Bf8251zc6ZZyEgf-36" style="edgeStyle=orthogonalEdgeStyle;rounded=1;orthogonalLoop=1;jettySize=auto;html=1;exitX=0;exitY=0.5;exitDx=0;exitDy=0;entryX=0.5;entryY=0;entryDx=0;entryDy=0;fontSize=15;" parent="1" source="Fg1O7Bf8251zc6ZZyEgf-2" target="Fg1O7Bf8251zc6ZZyEgf-35" edge="1">
          <mxGeometry relative="1" as="geometry" />
        </mxCell>
        <mxCell id="6Gd3NfDieY2zA0KMV2QC-1" value="" style="edgeStyle=orthogonalEdgeStyle;rounded=1;orthogonalLoop=1;jettySize=auto;html=1;" edge="1" parent="1" source="Fg1O7Bf8251zc6ZZyEgf-2" target="Fg1O7Bf8251zc6ZZyEgf-3">
          <mxGeometry relative="1" as="geometry" />
        </mxCell>
        <mxCell id="Fg1O7Bf8251zc6ZZyEgf-2" value="Project" style="rounded=1;whiteSpace=wrap;html=1;fontSize=15;" parent="1" vertex="1">
          <mxGeometry x="410" y="40" width="120" height="60" as="geometry" />
        </mxCell>
        <mxCell id="Fg1O7Bf8251zc6ZZyEgf-6" value="" style="edgeStyle=orthogonalEdgeStyle;rounded=1;orthogonalLoop=1;jettySize=auto;html=1;fontSize=15;" parent="1" source="Fg1O7Bf8251zc6ZZyEgf-3" target="Fg1O7Bf8251zc6ZZyEgf-5" edge="1">
          <mxGeometry relative="1" as="geometry" />
        </mxCell>
        <mxCell id="Fg1O7Bf8251zc6ZZyEgf-39" style="edgeStyle=orthogonalEdgeStyle;rounded=1;orthogonalLoop=1;jettySize=auto;html=1;exitX=1;exitY=0.5;exitDx=0;exitDy=0;entryX=0;entryY=0.5;entryDx=0;entryDy=0;fontSize=15;" parent="1" source="Fg1O7Bf8251zc6ZZyEgf-3" target="Fg1O7Bf8251zc6ZZyEgf-9" edge="1">
          <mxGeometry relative="1" as="geometry" />
        </mxCell>
        <mxCell id="Fg1O7Bf8251zc6ZZyEgf-3" value="Contributor&lt;br&gt;Team" style="rounded=1;whiteSpace=wrap;html=1;fontSize=15;" parent="1" vertex="1">
          <mxGeometry x="410" y="150" width="120" height="60" as="geometry" />
        </mxCell>
        <mxCell id="Fg1O7Bf8251zc6ZZyEgf-5" value="Organization" style="rounded=1;whiteSpace=wrap;html=1;fontSize=15;" parent="1" vertex="1">
          <mxGeometry x="610" y="150" width="120" height="60" as="geometry" />
        </mxCell>
        <mxCell id="Fg1O7Bf8251zc6ZZyEgf-9" value="Funder" style="rounded=1;whiteSpace=wrap;html=1;fontSize=15;" parent="1" vertex="1">
          <mxGeometry x="610" y="220" width="120" height="60" as="geometry" />
        </mxCell>
        <mxCell id="Fg1O7Bf8251zc6ZZyEgf-17" value="" style="edgeStyle=orthogonalEdgeStyle;rounded=1;orthogonalLoop=1;jettySize=auto;html=1;fontSize=15;" parent="1" source="Fg1O7Bf8251zc6ZZyEgf-15" target="Fg1O7Bf8251zc6ZZyEgf-16" edge="1">
          <mxGeometry relative="1" as="geometry" />
        </mxCell>
        <mxCell id="Fg1O7Bf8251zc6ZZyEgf-25" style="edgeStyle=orthogonalEdgeStyle;rounded=1;orthogonalLoop=1;jettySize=auto;html=1;exitX=1;exitY=0.5;exitDx=0;exitDy=0;entryX=0;entryY=0.5;entryDx=0;entryDy=0;fontSize=15;" parent="1" source="Fg1O7Bf8251zc6ZZyEgf-15" target="Fg1O7Bf8251zc6ZZyEgf-23" edge="1">
          <mxGeometry relative="1" as="geometry" />
        </mxCell>
        <mxCell id="Fg1O7Bf8251zc6ZZyEgf-27" style="edgeStyle=orthogonalEdgeStyle;rounded=1;orthogonalLoop=1;jettySize=auto;html=1;exitX=1;exitY=0.5;exitDx=0;exitDy=0;entryX=0;entryY=0.5;entryDx=0;entryDy=0;fontSize=15;" parent="1" source="Fg1O7Bf8251zc6ZZyEgf-15" target="Fg1O7Bf8251zc6ZZyEgf-26" edge="1">
          <mxGeometry relative="1" as="geometry" />
        </mxCell>
        <mxCell id="Fg1O7Bf8251zc6ZZyEgf-31" style="edgeStyle=orthogonalEdgeStyle;rounded=1;orthogonalLoop=1;jettySize=auto;html=1;exitX=1;exitY=0.5;exitDx=0;exitDy=0;entryX=0;entryY=0.5;entryDx=0;entryDy=0;fontSize=15;" parent="1" source="Fg1O7Bf8251zc6ZZyEgf-15" target="Fg1O7Bf8251zc6ZZyEgf-29" edge="1">
          <mxGeometry relative="1" as="geometry" />
        </mxCell>
        <mxCell id="Fg1O7Bf8251zc6ZZyEgf-32" style="edgeStyle=orthogonalEdgeStyle;rounded=1;orthogonalLoop=1;jettySize=auto;html=1;exitX=1;exitY=0.5;exitDx=0;exitDy=0;entryX=0;entryY=0.5;entryDx=0;entryDy=0;fontSize=15;" parent="1" source="Fg1O7Bf8251zc6ZZyEgf-15" target="Fg1O7Bf8251zc6ZZyEgf-30" edge="1">
          <mxGeometry relative="1" as="geometry" />
        </mxCell>
        <mxCell id="Fg1O7Bf8251zc6ZZyEgf-15" value="Documents" style="rounded=1;whiteSpace=wrap;html=1;fontSize=15;" parent="1" vertex="1">
          <mxGeometry x="220" y="321" width="120" height="60" as="geometry" />
        </mxCell>
        <mxCell id="Fg1O7Bf8251zc6ZZyEgf-19" value="" style="edgeStyle=orthogonalEdgeStyle;rounded=1;orthogonalLoop=1;jettySize=auto;html=1;fontSize=15;" parent="1" source="Fg1O7Bf8251zc6ZZyEgf-16" target="Fg1O7Bf8251zc6ZZyEgf-18" edge="1">
          <mxGeometry relative="1" as="geometry" />
        </mxCell>
        <mxCell id="Fg1O7Bf8251zc6ZZyEgf-22" style="edgeStyle=orthogonalEdgeStyle;rounded=1;orthogonalLoop=1;jettySize=auto;html=1;exitX=1;exitY=0.5;exitDx=0;exitDy=0;entryX=0;entryY=0.5;entryDx=0;entryDy=0;fontSize=15;" parent="1" source="Fg1O7Bf8251zc6ZZyEgf-16" target="Fg1O7Bf8251zc6ZZyEgf-21" edge="1">
          <mxGeometry relative="1" as="geometry" />
        </mxCell>
        <mxCell id="Fg1O7Bf8251zc6ZZyEgf-16" value="Data" style="rounded=1;whiteSpace=wrap;html=1;fontSize=15;" parent="1" vertex="1">
          <mxGeometry x="410" y="321" width="120" height="60" as="geometry" />
        </mxCell>
        <mxCell id="Fg1O7Bf8251zc6ZZyEgf-18" value="Primary Data" style="rounded=1;whiteSpace=wrap;html=1;fontSize=15;" parent="1" vertex="1">
          <mxGeometry x="610" y="290" width="120" height="60" as="geometry" />
        </mxCell>
        <mxCell id="Fg1O7Bf8251zc6ZZyEgf-21" value="Secondary Data" style="rounded=1;whiteSpace=wrap;html=1;fontSize=15;" parent="1" vertex="1">
          <mxGeometry x="610" y="360" width="120" height="60" as="geometry" />
        </mxCell>
        <mxCell id="Fg1O7Bf8251zc6ZZyEgf-23" value="Text" style="rounded=1;whiteSpace=wrap;html=1;fontSize=15;" parent="1" vertex="1">
          <mxGeometry x="410" y="390" width="120" height="60" as="geometry" />
        </mxCell>
        <mxCell id="Fg1O7Bf8251zc6ZZyEgf-26" value="Audio" style="rounded=1;whiteSpace=wrap;html=1;fontSize=15;" parent="1" vertex="1">
          <mxGeometry x="410" y="460" width="120" height="60" as="geometry" />
        </mxCell>
        <mxCell id="Fg1O7Bf8251zc6ZZyEgf-29" value="Video" style="rounded=1;whiteSpace=wrap;html=1;fontSize=15;" parent="1" vertex="1">
          <mxGeometry x="410" y="530" width="120" height="60" as="geometry" />
        </mxCell>
        <mxCell id="Fg1O7Bf8251zc6ZZyEgf-30" value="Picture" style="rounded=1;whiteSpace=wrap;html=1;fontSize=15;" parent="1" vertex="1">
          <mxGeometry x="410" y="600" width="120" height="60" as="geometry" />
        </mxCell>
        <mxCell id="Fg1O7Bf8251zc6ZZyEgf-37" style="edgeStyle=orthogonalEdgeStyle;rounded=1;orthogonalLoop=1;jettySize=auto;html=1;exitX=1;exitY=0.5;exitDx=0;exitDy=0;fontSize=15;" parent="1" source="Fg1O7Bf8251zc6ZZyEgf-35" target="Fg1O7Bf8251zc6ZZyEgf-3" edge="1">
          <mxGeometry relative="1" as="geometry" />
        </mxCell>
        <mxCell id="6Gd3NfDieY2zA0KMV2QC-2" value="" style="edgeStyle=orthogonalEdgeStyle;rounded=1;orthogonalLoop=1;jettySize=auto;html=1;" edge="1" parent="1" source="Fg1O7Bf8251zc6ZZyEgf-35" target="Fg1O7Bf8251zc6ZZyEgf-15">
          <mxGeometry relative="1" as="geometry" />
        </mxCell>
        <mxCell id="Fg1O7Bf8251zc6ZZyEgf-35" value="Action" style="rounded=1;whiteSpace=wrap;html=1;fontSize=15;" parent="1" vertex="1">
          <mxGeometry x="220" y="150" width="120" height="60" as="geometry" />
        </mxCell>
      </root>
    </mxGraphModel>
  </diagram>
</mxfile>
